HIERARCHY
ROOT hip
{
  OFFSET 0 0 0
  CHANNELS 6 Xposition Yposition Zposition Zrotation Yrotation Xrotation
  JOINT abdomen
  {
    OFFSET 0 20.6881 -0.73152
    CHANNELS 3 Zrotation Xrotation Yrotation
    JOINT chest
    {
      OFFSET 0 11.7043 -0.48768
      CHANNELS 3 Zrotation Xrotation Yrotation
      JOINT neck
      {
        OFFSET 0 22.1894 -2.19456
        CHANNELS 3 Zrotation Xrotation Yrotation
        JOINT head
        {
          OFFSET -0.24384 7.07133 1.2192
          CHANNELS 3 Zrotation Xrotation Yrotation
          JOINT leftEye
          {
            OFFSET 4.14528 8.04674 8.04672
            CHANNELS 3 Zrotation Xrotation Yrotation
            End Site
            {
              OFFSET 1 0 0
            }
          }
          JOINT rightEye
          {
            OFFSET -3.6576 8.04674 8.04672
            CHANNELS 3 Zrotation Xrotation Yrotation
            End Site
            {
              OFFSET 1 0 0
            }
          }
        }
      }
      JOINT rCollar
      {
        OFFSET -2.68224 19.2634 -4.8768
        CHANNELS 3 Zrotation Xrotation Yrotation
        JOINT rShldr
        {
          OFFSET -8.77824 -1.95073 1.46304
          CHANNELS 3 Zrotation Xrotation Yrotation
          JOINT rForeArm
          {
            OFFSET -28.1742 -1.7115 0.48768
            CHANNELS 3 Zrotation Xrotation Yrotation
            JOINT rHand
            {
              OFFSET -22.5879 0.773209 7.07136
              CHANNELS 3 Zrotation Xrotation Yrotation
              JOINT rThumb1
              {
                OFFSET -1.2192 -0.487915 3.41376
                CHANNELS 3 Zrotation Xrotation Yrotation
                JOINT rThumb2
                {
                  OFFSET -3.37035 -0.52449 3.41376
                  CHANNELS 3 Zrotation Xrotation Yrotation
                  End Site
                  {
                    OFFSET -1.78271 -1.18214 1.43049
                  }
                }
              }
              JOINT rIndex1
              {
                OFFSET -7.75947 0.938293 5.60832
                CHANNELS 3 Zrotation Xrotation Yrotation
                JOINT rIndex2
                {
                  OFFSET -2.54057 -0.884171 1.56538
                  CHANNELS 3 Zrotation Xrotation Yrotation
                  End Site
                  {
                    OFFSET -1.62519 -0.234802 1.16502
                  }
                }
              }
              JOINT rMid1
              {
                OFFSET -8.24714 1.18213 3.41376
                CHANNELS 3 Zrotation Xrotation Yrotation
                JOINT rMid2
                {
                  OFFSET -3.10165 -0.590103 1.0647
                  CHANNELS 3 Zrotation Xrotation Yrotation
                  End Site
                  {
                    OFFSET -2.48547 -0.328903 0.83742
                  }
                }
              }
              JOINT rRing1
              {
                OFFSET -8.82822 0.546677 1.51678
                CHANNELS 3 Zrotation Xrotation Yrotation
                JOINT rRing2
                {
                  OFFSET -2.60934 -0.819778 -0.0198488
                  CHANNELS 3 Zrotation Xrotation Yrotation
                  End Site
                  {
                    OFFSET -2.33842 -0.294052 0.168128
                  }
                }
              }
              JOINT rPinky1
              {
                OFFSET -8.27202 -0.0477905 -0.4584
                CHANNELS 3 Zrotation Xrotation Yrotation
                JOINT rPinky2
                {
                  OFFSET -1.82734 -0.647385 -0.700984
                  CHANNELS 3 Zrotation Xrotation Yrotation
                  End Site
                  {
                    OFFSET -1.69225 -0.51767 -0.607171
                  }
                }
              }
            }
          }
        }
      }
      JOINT lCollar
      {
        OFFSET 2.68224 19.2634 -4.8768
        CHANNELS 3 Zrotation Xrotation Yrotation
        JOINT lShldr
        {
          OFFSET 8.77824 -1.95073 1.46304
          CHANNELS 3 Zrotation Xrotation Yrotation
          JOINT lForeArm
          {
            OFFSET 28.1742 -1.7115 0.48768
            CHANNELS 3 Zrotation Xrotation Yrotation
            JOINT lHand
            {
              OFFSET 22.5879 0.773209 7.07136
              CHANNELS 3 Zrotation Xrotation Yrotation
              JOINT lThumb1
              {
                OFFSET 1.2192 -0.487915 3.41376
                CHANNELS 3 Zrotation Xrotation Yrotation
                JOINT lThumb2
                {
                  OFFSET 3.37035 -0.52449 3.41376
                  CHANNELS 3 Zrotation Xrotation Yrotation
                  End Site
                  {
                    OFFSET 1.78271 -1.18214 1.43049
                  }
                }
              }
              JOINT lIndex1
              {
                OFFSET 7.75947 0.938293 5.60832
                CHANNELS 3 Zrotation Xrotation Yrotation
                JOINT lIndex2
                {
                  OFFSET 2.54057 -0.884171 1.56538
                  CHANNELS 3 Zrotation Xrotation Yrotation
                  End Site
                  {
                    OFFSET 1.62519 -0.234802 1.16502
                  }
                }
              }
              JOINT lMid1
              {
                OFFSET 8.24714 1.18213 3.41376
                CHANNELS 3 Zrotation Xrotation Yrotation
                JOINT lMid2
                {
                  OFFSET 3.10165 -0.590103 1.0647
                  CHANNELS 3 Zrotation Xrotation Yrotation
                  End Site
                  {
                    OFFSET 2.48547 -0.328903 0.83742
                  }
                }
              }
              JOINT lRing1
              {
                OFFSET 8.82822 0.546677 1.51678
                CHANNELS 3 Zrotation Xrotation Yrotation
                JOINT lRing2
                {
                  OFFSET 2.60934 -0.819778 -0.0198488
                  CHANNELS 3 Zrotation Xrotation Yrotation
                  End Site
                  {
                    OFFSET 2.33842 -0.294052 0.168128
                  }
                }
              }
              JOINT lPinky1
              {
                OFFSET 8.27202 -0.0477905 -0.4584
                CHANNELS 3 Zrotation Xrotation Yrotation
                JOINT lPinky2
                {
                  OFFSET 1.82734 -0.647385 -0.700984
                  CHANNELS 3 Zrotation Xrotation Yrotation
                  End Site
                  {
                    OFFSET 1.69225 -0.51767 -0.607171
                  }
                }
              }
            }
          }
        }
      }
    }
  }
  JOINT rButtock
  {
    OFFSET -8.77824 4.35084 1.2192
    CHANNELS 3 Zrotation Xrotation Yrotation
    JOINT rThigh
    {
      OFFSET 0 -1.70687 -2.19456
      CHANNELS 3 Zrotation Xrotation Yrotation
      JOINT rShin
      {
        OFFSET 0 -36.8199 0.73152
        CHANNELS 3 Zrotation Xrotation Yrotation
        JOINT rFoot
        {
          OFFSET 0.73152 -45.1104 -5.12064
          CHANNELS 3 Zrotation Xrotation Yrotation
          End Site
          {
            OFFSET -1.1221 -3.69964 12.103
          }
        }
      }
    }
  }
  JOINT lButtock
  {
    OFFSET 8.77824 4.35084 1.2192
    CHANNELS 3 Zrotation Xrotation Yrotation
    JOINT lThigh
    {
      OFFSET 0 -1.70687 -2.19456
      CHANNELS 3 Zrotation Xrotation Yrotation
      JOINT lShin
      {
        OFFSET 0 -36.8199 0.73152
        CHANNELS 3 Zrotation Xrotation Yrotation
        JOINT lFoot
        {
          OFFSET -0.73152 -45.1104 -5.12064
          CHANNELS 3 Zrotation Xrotation Yrotation
          End Site
          {
            OFFSET 1.1221 -3.69964 12.103
          }
        }
      }
    }
  }
}
MOTION
Frames:	5
Frame Time:	0.00833333
-2.3756 81.0683 37.5182 -1.9542 -18.7379 0.6994 -4.54306 17.4632 0.288371 2.1814 -2.90904 -0.167401 -13.1916 1.0996 -7.46538 9.57833 20.1408 -13.3483 -0.0 0.0 0.0 -0.0 0.0 0.0 2.97312e-13 1.33588e-13 -1.00178e-12 39.4448 29.2951 30.9261 -15.8153 -8.51666 29.2836 -0.0682875 7.43531 1.05093 2.71702e-09 -1.91643e-09 1.00164e-09 4.69729e-09 -3.30391e-09 1.71752e-09 2.71701e-09 -1.91643e-09 1.00163e-09 7.73091 5.47488 0.417314 2.71702e-09 -1.91643e-09 1.00163e-09 2.90554 0.965183 0.102902 2.71702e-09 -1.91643e-09 1.00164e-09 10.2786 0.731801 0.0259123 2.71702e-09 -1.91643e-09 1.00164e-09 2.22167 -0.733487 -0.20892 2.97422e-13 1.33579e-13 -1.00202e-12 -23.2322 64.1944 -68.816 14.2236 -7.13628 -26.0051 1.06009 27.8951 -4.26659 -6.31285e-09 1.83805e-09 -2.08847e-09 -1.0936e-08 3.25307e-09 -3.455e-09 -6.31284e-09 1.83806e-09 -2.08847e-09 -7.73091 5.47488 -0.417314 -6.31284e-09 1.83806e-09 -2.08848e-09 -2.90554 0.965183 -0.102902 -6.31285e-09 1.83806e-09 -2.08848e-09 -10.2786 0.731801 -0.0259123 -6.31284e-09 1.83806e-09 -2.08849e-09 -2.22167 -0.733487 0.20892 -2.03217e-16 0.0 -3.88251e-19 -13.8362 -9.87806 -18.5042 0.14352 21.0297 1.16265 3.12725 -4.317 -9.97864 2.03217e-16 0.0 3.88251e-19 4.73186 -6.57727 6.20342 -0.150006 26.6454 -1.46405 -2.30696 -15.7728 12.9399
-2.0729 81.066 37.5659 -1.7889 -19.6664 0.3998 -5.05676 17.5641 -0.0855009 2.33104 -2.94492 -0.295953 -13.3796 1.47841 -7.53624 10.0858 19.782 -13.6088 -0.0 0.0 0.0 -0.0 0.0 0.0 2.60526e-13 1.30343e-13 -8.93517e-13 38.3577 27.1824 30.2109 -15.8018 -8.50411 29.2557 -0.0653973 7.28262 1.0291 2.22273e-09 -1.21831e-09 6.99756e-10 3.84118e-09 -2.09649e-09 1.19834e-09 2.22273e-09 -1.21831e-09 6.99747e-10 7.73091 5.47488 0.417314 2.22273e-09 -1.21831e-09 6.99749e-10 2.90554 0.965183 0.102902 2.22273e-09 -1.21831e-09 6.99757e-10 10.2786 0.731801 0.0259123 2.22273e-09 -1.21831e-09 6.99763e-10 2.22167 -0.733487 -0.20892 2.60574e-13 1.30339e-13 -8.93739e-13 -20.0569 64.5083 -72.5551 14.5711 -7.42243 -26.7162 0.963604 26.7138 -4.0559 -5.63559e-09 1.59618e-09 -1.89429e-09 -9.7636e-09 2.82631e-09 -3.1365e-09 -5.63558e-09 1.59618e-09 -1.89428e-09 -7.73091 5.47488 -0.417314 -5.63558e-09 1.59618e-09 -1.89429e-09 -2.90554 0.965183 -0.102902 -5.63559e-09 1.59619e-09 -1.89429e-09 -10.2786 0.731801 -0.0259123 -5.63558e-09 1.59619e-09 -1.8943e-09 -2.22167 -0.733487 0.20892 -2.03217e-16 0.0 -3.88251e-19 -14.0761 -9.9119 -18.1618 0.146298 20.8952 1.17921 3.17602 -3.971 -10.0095 2.03217e-16 0.0 3.88251e-19 4.18078 -5.94567 6.32804 -0.151085 26.2354 -1.45079 -2.29152 -16.0793 13.5147
-1.77012 81.0618 37.6146 -1.5522 -20.5652 0.078 -5.55596 17.6922 -0.539147 2.46834 -2.97487 -0.446679 -13.5856 1.865 -7.5934 10.6526 19.4309 -13.8507 -0.0 0.0 0.0 -0.0 0.0 0.0 1.72224e-13 1.10621e-13 -6.23892e-13 36.909 25.4187 29.6866 -15.8171 -8.51809 29.2879 -0.0616087 7.07284 0.999135 1.23199e-09 -2.60524e-10 3.0515e-10 2.1271e-09 -4.42758e-10 5.22035e-10 1.23199e-09 -2.60524e-10 3.05136e-10 7.73091 5.47488 0.417314 1.23199e-09 -2.60527e-10 3.05143e-10 2.90554 0.965183 0.102902 1.23199e-09 -2.60528e-10 3.0515e-10 10.2786 0.731801 0.0259123 1.23199e-09 -2.60528e-10 3.05158e-10 2.22167 -0.733487 -0.20892 1.72154e-13 1.10626e-13 -6.24081e-13 -16.7228 64.6708 -76.3163 14.9294 -7.72061 -27.4664 0.873177 25.5323 -3.84952 -4.00829e-09 1.12417e-09 -1.3129e-09 -6.94338e-09 1.98923e-09 -2.17203e-09 -4.00829e-09 1.12418e-09 -1.31289e-09 -7.73091 5.47488 -0.417314 -4.00829e-09 1.12418e-09 -1.3129e-09 -2.90554 0.965183 -0.102902 -4.0083e-09 1.12419e-09 -1.3129e-09 -10.2786 0.731801 -0.0259123 -4.00829e-09 1.12419e-09 -1.31291e-09 -2.22167 -0.733487 0.20892 -2.03217e-16 0.0 -3.88251e-19 -14.3034 -9.89282 -17.7547 0.147953 20.7333 1.18624 3.19871 -3.66573 -9.99702 2.03217e-16 0.0 3.88251e-19 3.58594 -5.28983 6.34516 -0.151172 25.7542 -1.42964 -2.2596 -16.3671 14.1035
-1.50268 81.0756 37.6643 -1.4165 -21.4698 -0.2643 -6.05374 17.851 -0.990617 2.58517 -3.00355 -0.597955 -13.7616 2.21697 -7.65562 11.217 19.1207 -14.1051 -0.0 0.0 0.0 -0.0 0.0 0.0 7.4754e-14 8.3295e-14 -3.2216e-13 35.3585 23.7634 29.2548 -15.8346 -8.5342 29.3244 -0.057916 6.85649 0.968278 2.15523e-10 6.40235e-10 -8.19928e-11 3.68839e-10 1.11163e-09 -1.41268e-10 2.15526e-10 6.40235e-10 -8.20106e-11 7.73091 5.47488 0.417314 2.15522e-10 6.40232e-10 -8.2e-11 2.90554 0.965183 0.102902 2.15524e-10 6.4023e-10 -8.19934e-11 10.2786 0.731801 0.0259123 2.15519e-10 6.4023e-10 -8.19836e-11 2.22167 -0.733487 -0.20892 7.45641e-14 8.33099e-14 -3.22321e-13 -13.1882 64.6916 -80.1237 15.3401 -8.07816 -28.318 0.786022 24.3245 -3.64259 -2.23986e-09 6.06492e-10 -6.62962e-10 -3.87814e-09 1.07064e-09 -1.09302e-09 -2.23986e-09 6.06498e-10 -6.62951e-10 -7.73091 5.47488 -0.417314 -2.23986e-09 6.065e-10 -6.62957e-10 -2.90554 0.965183 -0.102902 -2.23986e-09 6.06504e-10 -6.62961e-10 -10.2786 0.731801 -0.0259123 -2.23986e-09 6.06502e-10 -6.62971e-10 -2.22167 -0.733487 0.20892 -2.03217e-16 0.0 -3.88251e-19 -14.5252 -9.85024 -17.3404 0.149452 20.5687 1.19263 3.2192 -3.40344 -10.0001 2.03217e-16 0.0 3.88251e-19 2.99991 -4.6316 6.36879 -0.150501 25.2579 -1.40432 -2.21701 -16.6176 14.6588
-1.23779 81.0896 37.7115 -1.2843 -22.3019 -0.5983 -6.56397 18.0444 -1.35774 2.67336 -3.03562 -0.728159 -13.8595 2.49191 -7.74157 11.7174 18.8844 -14.4031 -0.0 0.0 0.0 -0.0 0.0 0.0 1.04653e-14 5.72399e-14 -1.17581e-13 33.9444 21.9697 28.8451 -15.8277 -8.52811 29.3097 -0.0551105 6.68411 0.943718 -3.55952e-10 1.16729e-09 -3.61483e-10 -6.19839e-10 2.02099e-09 -6.21426e-10 -3.55948e-10 1.16729e-09 -3.61502e-10 7.73091 5.47488 0.417314 -3.55953e-10 1.16729e-09 -3.61489e-10 2.90554 0.965183 0.102902 -3.55952e-10 1.16728e-09 -3.61484e-10 10.2786 0.731801 0.0259123 -3.55957e-10 1.16728e-09 -3.61473e-10 2.22167 -0.733487 -0.20892 1.02089e-14 5.72581e-14 -1.1773e-13 -9.40779 64.5735 -84.0048 15.8394 -8.53891 -29.3345 0.700196 23.0642 -3.43075 -1.13919e-09 2.27575e-10 -2.63143e-10 -1.97069e-09 3.99328e-10 -4.30931e-10 -1.13919e-09 2.27581e-10 -2.6313e-10 -7.73091 5.47488 -0.417314 -1.13919e-09 2.27582e-10 -2.63137e-10 -2.90554 0.965183 -0.102902 -1.13919e-09 2.27585e-10 -2.6314e-10 -10.2786 0.731801 -0.0259123 -1.13918e-09 2.27583e-10 -2.6315e-10 -2.22167 -0.733487 0.20892 -2.03217e-16 0.0 -3.88251e-19 -14.7477 -9.81425 -16.9764 0.15185 20.4261 1.20723 3.26246 -3.18656 -10.0778 2.03217e-16 0.0 3.88251e-19 2.47014 -3.99334 6.51235 -0.149529 24.8025 -1.37838 -2.17123 -16.813 15.1323
